<mxfile host="app.diagrams.net" agent="Mozilla/5.0 (Windows NT 10.0; Win64; x64) AppleWebKit/537.36 (KHTML, like Gecko) Chrome/140.0.0.0 Safari/537.36" version="28.2.5">
  <diagram name="Страница — 1" id="c6xEdB5K4qL8h1SHKxz1">
    <mxGraphModel dx="1959" dy="914" grid="1" gridSize="10" guides="1" tooltips="1" connect="1" arrows="1" fold="1" page="1" pageScale="1" pageWidth="827" pageHeight="1169" math="0" shadow="0">
      <root>
        <mxCell id="0" />
        <mxCell id="1" parent="0" />
        <mxCell id="CNhippC-PvLOj3uCZCu6-1" value="&lt;div style=&quot;&quot;&gt;&lt;span style=&quot;background-color: transparent; color: light-dark(rgb(0, 0, 0), rgb(255, 255, 255));&quot;&gt;ООО &quot;Дистрибьютор экспресс&quot;&lt;/span&gt;&lt;/div&gt;" style="rounded=1;whiteSpace=wrap;html=1;align=center;" vertex="1" parent="1">
          <mxGeometry x="240" y="80" width="140" height="90" as="geometry" />
        </mxCell>
        <mxCell id="CNhippC-PvLOj3uCZCu6-2" value="" style="shape=actor;whiteSpace=wrap;html=1;" vertex="1" parent="1">
          <mxGeometry x="240" y="80" width="10" height="10" as="geometry" />
        </mxCell>
        <mxCell id="CNhippC-PvLOj3uCZCu6-3" value="&lt;div style=&quot;&quot;&gt;&lt;span style=&quot;background-color: transparent; color: light-dark(rgb(0, 0, 0), rgb(255, 255, 255));&quot;&gt;Генеральный директор&lt;/span&gt;&lt;/div&gt;" style="rounded=1;whiteSpace=wrap;html=1;align=center;" vertex="1" parent="1">
          <mxGeometry x="480" y="80" width="140" height="90" as="geometry" />
        </mxCell>
        <mxCell id="CNhippC-PvLOj3uCZCu6-4" value="" style="shape=actor;whiteSpace=wrap;html=1;" vertex="1" parent="1">
          <mxGeometry x="480" y="80" width="10" height="10" as="geometry" />
        </mxCell>
        <mxCell id="CNhippC-PvLOj3uCZCu6-6" value="" style="endArrow=none;html=1;rounded=0;exitX=1;exitY=0.5;exitDx=0;exitDy=0;entryX=0;entryY=0.5;entryDx=0;entryDy=0;" edge="1" parent="1" source="CNhippC-PvLOj3uCZCu6-1" target="CNhippC-PvLOj3uCZCu6-3">
          <mxGeometry width="50" height="50" relative="1" as="geometry">
            <mxPoint x="420" y="250" as="sourcePoint" />
            <mxPoint x="470" y="200" as="targetPoint" />
          </mxGeometry>
        </mxCell>
        <mxCell id="CNhippC-PvLOj3uCZCu6-7" value="" style="shape=actor;whiteSpace=wrap;html=1;" vertex="1" parent="1">
          <mxGeometry x="250" y="80" width="10" height="10" as="geometry" />
        </mxCell>
        <mxCell id="CNhippC-PvLOj3uCZCu6-9" value="&lt;div style=&quot;&quot;&gt;&lt;span style=&quot;background-color: transparent; color: light-dark(rgb(0, 0, 0), rgb(255, 255, 255));&quot;&gt;Отдел продаж&lt;/span&gt;&lt;/div&gt;" style="rounded=1;whiteSpace=wrap;html=1;align=center;" vertex="1" parent="1">
          <mxGeometry x="40" y="210" width="140" height="90" as="geometry" />
        </mxCell>
        <mxCell id="CNhippC-PvLOj3uCZCu6-10" value="" style="shape=actor;whiteSpace=wrap;html=1;" vertex="1" parent="1">
          <mxGeometry x="40" y="210" width="10" height="10" as="geometry" />
        </mxCell>
        <mxCell id="CNhippC-PvLOj3uCZCu6-11" value="" style="shape=actor;whiteSpace=wrap;html=1;" vertex="1" parent="1">
          <mxGeometry x="50" y="210" width="10" height="10" as="geometry" />
        </mxCell>
        <mxCell id="CNhippC-PvLOj3uCZCu6-12" value="&lt;div style=&quot;&quot;&gt;Руководитель отдела продаж&lt;/div&gt;" style="rounded=1;whiteSpace=wrap;html=1;align=center;" vertex="1" parent="1">
          <mxGeometry x="130" y="320" width="140" height="90" as="geometry" />
        </mxCell>
        <mxCell id="CNhippC-PvLOj3uCZCu6-13" value="" style="shape=actor;whiteSpace=wrap;html=1;" vertex="1" parent="1">
          <mxGeometry x="130" y="320" width="10" height="10" as="geometry" />
        </mxCell>
        <mxCell id="CNhippC-PvLOj3uCZCu6-14" value="&lt;div style=&quot;&quot;&gt;Менеджеры по продажам&lt;/div&gt;" style="rounded=1;whiteSpace=wrap;html=1;align=center;" vertex="1" parent="1">
          <mxGeometry x="130" y="430" width="140" height="90" as="geometry" />
        </mxCell>
        <mxCell id="CNhippC-PvLOj3uCZCu6-15" value="" style="shape=actor;whiteSpace=wrap;html=1;" vertex="1" parent="1">
          <mxGeometry x="135" y="430" width="10" height="10" as="geometry" />
        </mxCell>
        <mxCell id="CNhippC-PvLOj3uCZCu6-16" value="&lt;div style=&quot;&quot;&gt;Специалисты по поддержке продаж&lt;/div&gt;" style="rounded=1;whiteSpace=wrap;html=1;align=center;" vertex="1" parent="1">
          <mxGeometry x="130" y="540" width="140" height="90" as="geometry" />
        </mxCell>
        <mxCell id="CNhippC-PvLOj3uCZCu6-17" value="" style="shape=actor;whiteSpace=wrap;html=1;" vertex="1" parent="1">
          <mxGeometry x="135" y="540" width="10" height="10" as="geometry" />
        </mxCell>
        <mxCell id="CNhippC-PvLOj3uCZCu6-18" value="" style="endArrow=none;html=1;rounded=0;entryX=0.5;entryY=1;entryDx=0;entryDy=0;exitX=0.5;exitY=0;exitDx=0;exitDy=0;" edge="1" parent="1" source="CNhippC-PvLOj3uCZCu6-9" target="CNhippC-PvLOj3uCZCu6-3">
          <mxGeometry width="50" height="50" relative="1" as="geometry">
            <mxPoint x="110" y="190" as="sourcePoint" />
            <mxPoint x="310" y="250" as="targetPoint" />
            <Array as="points">
              <mxPoint x="110" y="190" />
              <mxPoint x="550" y="190" />
            </Array>
          </mxGeometry>
        </mxCell>
        <mxCell id="CNhippC-PvLOj3uCZCu6-19" value="" style="endArrow=none;html=1;rounded=0;entryX=0.5;entryY=1;entryDx=0;entryDy=0;exitX=0;exitY=0.5;exitDx=0;exitDy=0;" edge="1" parent="1" source="CNhippC-PvLOj3uCZCu6-16" target="CNhippC-PvLOj3uCZCu6-9">
          <mxGeometry width="50" height="50" relative="1" as="geometry">
            <mxPoint x="80" y="550" as="sourcePoint" />
            <mxPoint x="310" y="270" as="targetPoint" />
            <Array as="points">
              <mxPoint x="110" y="585" />
            </Array>
          </mxGeometry>
        </mxCell>
        <mxCell id="CNhippC-PvLOj3uCZCu6-20" value="" style="endArrow=none;html=1;rounded=0;entryX=0;entryY=0.5;entryDx=0;entryDy=0;" edge="1" parent="1" target="CNhippC-PvLOj3uCZCu6-12">
          <mxGeometry width="50" height="50" relative="1" as="geometry">
            <mxPoint x="110" y="365" as="sourcePoint" />
            <mxPoint x="410" y="340" as="targetPoint" />
          </mxGeometry>
        </mxCell>
        <mxCell id="CNhippC-PvLOj3uCZCu6-21" value="" style="endArrow=none;html=1;rounded=0;exitX=0;exitY=0.5;exitDx=0;exitDy=0;" edge="1" parent="1" source="CNhippC-PvLOj3uCZCu6-14">
          <mxGeometry width="50" height="50" relative="1" as="geometry">
            <mxPoint x="400" y="530" as="sourcePoint" />
            <mxPoint x="110" y="475" as="targetPoint" />
          </mxGeometry>
        </mxCell>
        <mxCell id="CNhippC-PvLOj3uCZCu6-23" value="&lt;div style=&quot;&quot;&gt;&lt;span style=&quot;background-color: transparent; color: light-dark(rgb(0, 0, 0), rgb(255, 255, 255));&quot;&gt;Отдел дистрибуции и логистики&lt;/span&gt;&lt;/div&gt;" style="rounded=1;whiteSpace=wrap;html=1;align=center;" vertex="1" parent="1">
          <mxGeometry x="230" y="210" width="140" height="90" as="geometry" />
        </mxCell>
        <mxCell id="CNhippC-PvLOj3uCZCu6-24" value="" style="shape=actor;whiteSpace=wrap;html=1;" vertex="1" parent="1">
          <mxGeometry x="230" y="210" width="10" height="10" as="geometry" />
        </mxCell>
        <mxCell id="CNhippC-PvLOj3uCZCu6-25" value="" style="shape=actor;whiteSpace=wrap;html=1;" vertex="1" parent="1">
          <mxGeometry x="240" y="210" width="10" height="10" as="geometry" />
        </mxCell>
        <mxCell id="CNhippC-PvLOj3uCZCu6-26" value="" style="endArrow=none;html=1;rounded=0;entryX=0.5;entryY=0;entryDx=0;entryDy=0;" edge="1" parent="1" target="CNhippC-PvLOj3uCZCu6-23">
          <mxGeometry width="50" height="50" relative="1" as="geometry">
            <mxPoint x="300" y="190" as="sourcePoint" />
            <mxPoint x="450" y="220" as="targetPoint" />
          </mxGeometry>
        </mxCell>
        <mxCell id="CNhippC-PvLOj3uCZCu6-27" value="&lt;div style=&quot;&quot;&gt;Руководитель отдела логистики&lt;/div&gt;" style="rounded=1;whiteSpace=wrap;html=1;align=center;" vertex="1" parent="1">
          <mxGeometry x="320" y="320" width="140" height="90" as="geometry" />
        </mxCell>
        <mxCell id="CNhippC-PvLOj3uCZCu6-28" value="" style="shape=actor;whiteSpace=wrap;html=1;" vertex="1" parent="1">
          <mxGeometry x="320" y="320" width="10" height="10" as="geometry" />
        </mxCell>
        <mxCell id="CNhippC-PvLOj3uCZCu6-29" value="&lt;div style=&quot;&quot;&gt;Менеджеры по логистике&lt;/div&gt;" style="rounded=1;whiteSpace=wrap;html=1;align=center;" vertex="1" parent="1">
          <mxGeometry x="320" y="430" width="140" height="90" as="geometry" />
        </mxCell>
        <mxCell id="CNhippC-PvLOj3uCZCu6-30" value="" style="shape=actor;whiteSpace=wrap;html=1;" vertex="1" parent="1">
          <mxGeometry x="320" y="430" width="10" height="10" as="geometry" />
        </mxCell>
        <mxCell id="CNhippC-PvLOj3uCZCu6-31" value="&lt;div style=&quot;&quot;&gt;Специалисты по планированию поставок&lt;/div&gt;" style="rounded=1;whiteSpace=wrap;html=1;align=center;" vertex="1" parent="1">
          <mxGeometry x="320" y="540" width="140" height="90" as="geometry" />
        </mxCell>
        <mxCell id="CNhippC-PvLOj3uCZCu6-32" value="" style="shape=actor;whiteSpace=wrap;html=1;" vertex="1" parent="1">
          <mxGeometry x="320" y="540" width="10" height="10" as="geometry" />
        </mxCell>
        <mxCell id="CNhippC-PvLOj3uCZCu6-33" value="" style="endArrow=none;html=1;rounded=0;entryX=0.5;entryY=1;entryDx=0;entryDy=0;exitX=0;exitY=0.5;exitDx=0;exitDy=0;" edge="1" parent="1" source="CNhippC-PvLOj3uCZCu6-31" target="CNhippC-PvLOj3uCZCu6-23">
          <mxGeometry width="50" height="50" relative="1" as="geometry">
            <mxPoint x="470" y="440" as="sourcePoint" />
            <mxPoint x="520" y="390" as="targetPoint" />
            <Array as="points">
              <mxPoint x="300" y="585" />
            </Array>
          </mxGeometry>
        </mxCell>
        <mxCell id="CNhippC-PvLOj3uCZCu6-34" value="" style="endArrow=none;html=1;rounded=0;entryX=0;entryY=0.5;entryDx=0;entryDy=0;" edge="1" parent="1" target="CNhippC-PvLOj3uCZCu6-29">
          <mxGeometry width="50" height="50" relative="1" as="geometry">
            <mxPoint x="300" y="475" as="sourcePoint" />
            <mxPoint x="540" y="340" as="targetPoint" />
          </mxGeometry>
        </mxCell>
        <mxCell id="CNhippC-PvLOj3uCZCu6-35" value="" style="endArrow=none;html=1;rounded=0;entryX=0;entryY=0.5;entryDx=0;entryDy=0;" edge="1" parent="1" target="CNhippC-PvLOj3uCZCu6-27">
          <mxGeometry width="50" height="50" relative="1" as="geometry">
            <mxPoint x="300" y="365" as="sourcePoint" />
            <mxPoint x="590" y="300" as="targetPoint" />
          </mxGeometry>
        </mxCell>
        <mxCell id="CNhippC-PvLOj3uCZCu6-36" value="&lt;div style=&quot;&quot;&gt;Руководитель отдела маркетинга&lt;/div&gt;" style="rounded=1;whiteSpace=wrap;html=1;align=center;" vertex="1" parent="1">
          <mxGeometry x="510" y="320" width="140" height="90" as="geometry" />
        </mxCell>
        <mxCell id="CNhippC-PvLOj3uCZCu6-37" value="" style="shape=actor;whiteSpace=wrap;html=1;" vertex="1" parent="1">
          <mxGeometry x="510" y="320" width="10" height="10" as="geometry" />
        </mxCell>
        <mxCell id="CNhippC-PvLOj3uCZCu6-38" value="&lt;div style=&quot;&quot;&gt;&lt;span style=&quot;background-color: transparent; color: light-dark(rgb(0, 0, 0), rgb(255, 255, 255));&quot;&gt;Отдел маркетинга и аналитики&lt;/span&gt;&lt;/div&gt;" style="rounded=1;whiteSpace=wrap;html=1;align=center;" vertex="1" parent="1">
          <mxGeometry x="415" y="210" width="140" height="90" as="geometry" />
        </mxCell>
        <mxCell id="CNhippC-PvLOj3uCZCu6-39" value="" style="shape=actor;whiteSpace=wrap;html=1;" vertex="1" parent="1">
          <mxGeometry x="415" y="210" width="10" height="10" as="geometry" />
        </mxCell>
        <mxCell id="CNhippC-PvLOj3uCZCu6-40" value="" style="shape=actor;whiteSpace=wrap;html=1;" vertex="1" parent="1">
          <mxGeometry x="425" y="210" width="10" height="10" as="geometry" />
        </mxCell>
        <mxCell id="CNhippC-PvLOj3uCZCu6-41" value="&lt;div style=&quot;&quot;&gt;Маркетологи продукции&lt;/div&gt;" style="rounded=1;whiteSpace=wrap;html=1;align=center;" vertex="1" parent="1">
          <mxGeometry x="510" y="430" width="140" height="90" as="geometry" />
        </mxCell>
        <mxCell id="CNhippC-PvLOj3uCZCu6-42" value="" style="shape=actor;whiteSpace=wrap;html=1;" vertex="1" parent="1">
          <mxGeometry x="510" y="430" width="10" height="10" as="geometry" />
        </mxCell>
        <mxCell id="CNhippC-PvLOj3uCZCu6-43" value="" style="endArrow=none;html=1;rounded=0;entryX=0.536;entryY=1;entryDx=0;entryDy=0;exitX=0;exitY=0.5;exitDx=0;exitDy=0;entryPerimeter=0;" edge="1" parent="1" source="CNhippC-PvLOj3uCZCu6-50" target="CNhippC-PvLOj3uCZCu6-38">
          <mxGeometry width="50" height="50" relative="1" as="geometry">
            <mxPoint x="700" y="320" as="sourcePoint" />
            <mxPoint x="750" y="270" as="targetPoint" />
            <Array as="points">
              <mxPoint x="490" y="695" />
            </Array>
          </mxGeometry>
        </mxCell>
        <mxCell id="CNhippC-PvLOj3uCZCu6-44" value="&lt;div style=&quot;&quot;&gt;Специалисты по складской дистрибуции&lt;/div&gt;" style="rounded=1;whiteSpace=wrap;html=1;align=center;" vertex="1" parent="1">
          <mxGeometry x="320" y="650" width="140" height="90" as="geometry" />
        </mxCell>
        <mxCell id="CNhippC-PvLOj3uCZCu6-45" value="" style="shape=actor;whiteSpace=wrap;html=1;" vertex="1" parent="1">
          <mxGeometry x="320" y="650" width="10" height="10" as="geometry" />
        </mxCell>
        <mxCell id="CNhippC-PvLOj3uCZCu6-46" value="" style="endArrow=none;html=1;rounded=0;entryX=-0.004;entryY=0.554;entryDx=0;entryDy=0;entryPerimeter=0;" edge="1" parent="1" target="CNhippC-PvLOj3uCZCu6-44">
          <mxGeometry width="50" height="50" relative="1" as="geometry">
            <mxPoint x="300" y="700" as="sourcePoint" />
            <mxPoint x="270" y="730" as="targetPoint" />
            <Array as="points" />
          </mxGeometry>
        </mxCell>
        <mxCell id="CNhippC-PvLOj3uCZCu6-47" value="" style="endArrow=none;html=1;rounded=0;" edge="1" parent="1">
          <mxGeometry width="50" height="50" relative="1" as="geometry">
            <mxPoint x="300" y="580" as="sourcePoint" />
            <mxPoint x="300" y="700" as="targetPoint" />
          </mxGeometry>
        </mxCell>
        <mxCell id="CNhippC-PvLOj3uCZCu6-48" value="&lt;div style=&quot;&quot;&gt;Аналитики продаж&lt;/div&gt;" style="rounded=1;whiteSpace=wrap;html=1;align=center;" vertex="1" parent="1">
          <mxGeometry x="510" y="540" width="140" height="90" as="geometry" />
        </mxCell>
        <mxCell id="CNhippC-PvLOj3uCZCu6-49" value="" style="shape=actor;whiteSpace=wrap;html=1;" vertex="1" parent="1">
          <mxGeometry x="510" y="540" width="10" height="10" as="geometry" />
        </mxCell>
        <mxCell id="CNhippC-PvLOj3uCZCu6-50" value="&lt;div style=&quot;&quot;&gt;Специалисты по ценообразованию&lt;/div&gt;" style="rounded=1;whiteSpace=wrap;html=1;align=center;" vertex="1" parent="1">
          <mxGeometry x="510" y="650" width="140" height="90" as="geometry" />
        </mxCell>
        <mxCell id="CNhippC-PvLOj3uCZCu6-51" value="" style="shape=actor;whiteSpace=wrap;html=1;" vertex="1" parent="1">
          <mxGeometry x="510" y="650" width="10" height="10" as="geometry" />
        </mxCell>
        <mxCell id="CNhippC-PvLOj3uCZCu6-55" value="&lt;div style=&quot;&quot;&gt;&lt;span style=&quot;background-color: transparent; color: light-dark(rgb(0, 0, 0), rgb(255, 255, 255));&quot;&gt;Отдел обслуживания клиентов&lt;/span&gt;&lt;/div&gt;" style="rounded=1;whiteSpace=wrap;html=1;align=center;" vertex="1" parent="1">
          <mxGeometry x="600" y="210" width="140" height="90" as="geometry" />
        </mxCell>
        <mxCell id="CNhippC-PvLOj3uCZCu6-56" value="" style="shape=actor;whiteSpace=wrap;html=1;" vertex="1" parent="1">
          <mxGeometry x="600" y="210" width="10" height="10" as="geometry" />
        </mxCell>
        <mxCell id="CNhippC-PvLOj3uCZCu6-57" value="" style="shape=actor;whiteSpace=wrap;html=1;" vertex="1" parent="1">
          <mxGeometry x="610" y="210" width="10" height="10" as="geometry" />
        </mxCell>
        <mxCell id="CNhippC-PvLOj3uCZCu6-58" value="&lt;div style=&quot;&quot;&gt;Руководитель отдела обслуживания&lt;/div&gt;" style="rounded=1;whiteSpace=wrap;html=1;align=center;" vertex="1" parent="1">
          <mxGeometry x="690" y="320" width="140" height="90" as="geometry" />
        </mxCell>
        <mxCell id="CNhippC-PvLOj3uCZCu6-59" value="" style="shape=actor;whiteSpace=wrap;html=1;" vertex="1" parent="1">
          <mxGeometry x="700" y="320" width="10" height="10" as="geometry" />
        </mxCell>
        <mxCell id="CNhippC-PvLOj3uCZCu6-60" value="" style="endArrow=none;html=1;rounded=0;entryX=0;entryY=0.5;entryDx=0;entryDy=0;" edge="1" parent="1" target="CNhippC-PvLOj3uCZCu6-58">
          <mxGeometry width="50" height="50" relative="1" as="geometry">
            <mxPoint x="670" y="365" as="sourcePoint" />
            <mxPoint x="720" y="370" as="targetPoint" />
          </mxGeometry>
        </mxCell>
        <mxCell id="CNhippC-PvLOj3uCZCu6-61" value="&lt;div style=&quot;&quot;&gt;Специалисты по работе с клиентами&lt;/div&gt;" style="rounded=1;whiteSpace=wrap;html=1;align=center;" vertex="1" parent="1">
          <mxGeometry x="690" y="430" width="140" height="90" as="geometry" />
        </mxCell>
        <mxCell id="CNhippC-PvLOj3uCZCu6-62" value="" style="shape=actor;whiteSpace=wrap;html=1;" vertex="1" parent="1">
          <mxGeometry x="700" y="430" width="10" height="10" as="geometry" />
        </mxCell>
        <mxCell id="CNhippC-PvLOj3uCZCu6-63" value="&lt;div style=&quot;&quot;&gt;Специалисты по претензионной работе&lt;/div&gt;" style="rounded=1;whiteSpace=wrap;html=1;align=center;" vertex="1" parent="1">
          <mxGeometry x="690" y="540" width="140" height="90" as="geometry" />
        </mxCell>
        <mxCell id="CNhippC-PvLOj3uCZCu6-64" value="" style="shape=actor;whiteSpace=wrap;html=1;" vertex="1" parent="1">
          <mxGeometry x="700" y="540" width="10" height="10" as="geometry" />
        </mxCell>
        <mxCell id="CNhippC-PvLOj3uCZCu6-65" value="&lt;div style=&quot;&quot;&gt;Операторы call-центра&lt;/div&gt;" style="rounded=1;whiteSpace=wrap;html=1;align=center;" vertex="1" parent="1">
          <mxGeometry x="690" y="650" width="140" height="90" as="geometry" />
        </mxCell>
        <mxCell id="CNhippC-PvLOj3uCZCu6-66" value="" style="shape=actor;whiteSpace=wrap;html=1;" vertex="1" parent="1">
          <mxGeometry x="700" y="650" width="10" height="10" as="geometry" />
        </mxCell>
        <mxCell id="CNhippC-PvLOj3uCZCu6-67" value="" style="endArrow=none;html=1;rounded=0;entryX=0.5;entryY=1;entryDx=0;entryDy=0;exitX=0;exitY=0.5;exitDx=0;exitDy=0;" edge="1" parent="1" source="CNhippC-PvLOj3uCZCu6-65" target="CNhippC-PvLOj3uCZCu6-55">
          <mxGeometry width="50" height="50" relative="1" as="geometry">
            <mxPoint x="760" y="310" as="sourcePoint" />
            <mxPoint x="810" y="260" as="targetPoint" />
            <Array as="points">
              <mxPoint x="670" y="695" />
            </Array>
          </mxGeometry>
        </mxCell>
        <mxCell id="CNhippC-PvLOj3uCZCu6-68" value="" style="endArrow=none;html=1;rounded=0;exitX=0.5;exitY=0;exitDx=0;exitDy=0;" edge="1" parent="1" source="CNhippC-PvLOj3uCZCu6-38">
          <mxGeometry width="50" height="50" relative="1" as="geometry">
            <mxPoint x="710" y="160" as="sourcePoint" />
            <mxPoint x="485" y="190" as="targetPoint" />
          </mxGeometry>
        </mxCell>
        <mxCell id="CNhippC-PvLOj3uCZCu6-69" value="" style="endArrow=none;html=1;rounded=0;entryX=0.5;entryY=1;entryDx=0;entryDy=0;exitX=0.5;exitY=0;exitDx=0;exitDy=0;" edge="1" parent="1" source="CNhippC-PvLOj3uCZCu6-55" target="CNhippC-PvLOj3uCZCu6-3">
          <mxGeometry width="50" height="50" relative="1" as="geometry">
            <mxPoint x="740" y="200" as="sourcePoint" />
            <mxPoint x="790" y="150" as="targetPoint" />
            <Array as="points">
              <mxPoint x="670" y="190" />
              <mxPoint x="550" y="190" />
            </Array>
          </mxGeometry>
        </mxCell>
        <mxCell id="CNhippC-PvLOj3uCZCu6-72" value="" style="endArrow=none;html=1;rounded=0;entryX=0;entryY=0.5;entryDx=0;entryDy=0;" edge="1" parent="1" target="CNhippC-PvLOj3uCZCu6-36">
          <mxGeometry width="50" height="50" relative="1" as="geometry">
            <mxPoint x="490" y="365" as="sourcePoint" />
            <mxPoint x="530" y="360" as="targetPoint" />
          </mxGeometry>
        </mxCell>
        <mxCell id="CNhippC-PvLOj3uCZCu6-73" value="" style="endArrow=none;html=1;rounded=0;entryX=0;entryY=0.5;entryDx=0;entryDy=0;" edge="1" parent="1">
          <mxGeometry width="50" height="50" relative="1" as="geometry">
            <mxPoint x="490" y="474.86" as="sourcePoint" />
            <mxPoint x="510" y="474.86" as="targetPoint" />
          </mxGeometry>
        </mxCell>
        <mxCell id="CNhippC-PvLOj3uCZCu6-74" value="" style="endArrow=none;html=1;rounded=0;entryX=0;entryY=0.5;entryDx=0;entryDy=0;" edge="1" parent="1">
          <mxGeometry width="50" height="50" relative="1" as="geometry">
            <mxPoint x="490" y="580" as="sourcePoint" />
            <mxPoint x="510" y="580" as="targetPoint" />
          </mxGeometry>
        </mxCell>
        <mxCell id="CNhippC-PvLOj3uCZCu6-75" value="" style="endArrow=none;html=1;rounded=0;entryX=0;entryY=0.5;entryDx=0;entryDy=0;" edge="1" parent="1">
          <mxGeometry width="50" height="50" relative="1" as="geometry">
            <mxPoint x="670" y="474.86" as="sourcePoint" />
            <mxPoint x="690" y="474.86" as="targetPoint" />
          </mxGeometry>
        </mxCell>
        <mxCell id="CNhippC-PvLOj3uCZCu6-76" value="" style="endArrow=none;html=1;rounded=0;entryX=0;entryY=0.5;entryDx=0;entryDy=0;" edge="1" parent="1">
          <mxGeometry width="50" height="50" relative="1" as="geometry">
            <mxPoint x="670" y="584.86" as="sourcePoint" />
            <mxPoint x="690" y="584.86" as="targetPoint" />
          </mxGeometry>
        </mxCell>
      </root>
    </mxGraphModel>
  </diagram>
</mxfile>
